PathFileType	4	(X/Y/Z)	s05c0102.trc
DataRate	CameraRate	NumFrames	NumMarkers	Units	OrigDataRate	OrigDataStartFrame	OrigNumFrames
200	200	5	50	mm	200	250	2000
Frame#	Time	racr			lacr			c7			jug			rlel			rdr			llel			ldr			s2			lic			ric			lasi			rasi			rpsi			lpsi			rgt			lgt			rth1			rth2			rth3			rth4			rlfc			rmfc			rsh1			rsh2			rsh3			rsh4			rlmal			rmmal			rcal			rtoe			rmt5			lth1			lth2			lth4			lth3			llfc			lmfc			lsh1			lsh2			lsh3			lsh4			llmal			lmmal			lcal			ltoe			lmt5			SBIKE			LBIKE			RBIKE			
		X1	Y1	Z1	X2	Y2	Z2	X3	Y3	Z3	X4	Y4	Z4	X5	Y5	Z5	X6	Y6	Z6	X7	Y7	Z7	X8	Y8	Z8	X9	Y9	Z9	X10	Y10	Z10	X11	Y11	Z11	X12	Y12	Z12	X13	Y13	Z13	X14	Y14	Z14	X15	Y15	Z15	X16	Y16	Z16	X17	Y17	Z17	X18	Y18	Z18	X19	Y19	Z19	X20	Y20	Z20	X21	Y21	Z21	X22	Y22	Z22	X23	Y23	Z23	X24	Y24	Z24	X25	Y25	Z25	X26	Y26	Z26	X27	Y27	Z27	X28	Y28	Z28	X29	Y29	Z29	X30	Y30	Z30	X31	Y31	Z31	X32	Y32	Z32	X33	Y33	Z33	X34	Y34	Z34	X35	Y35	Z35	X36	Y36	Z36	X37	Y37	Z37	X38	Y38	Z38	X39	Y39	Z39	X40	Y40	Z40	X41	Y41	Z41	X42	Y42	Z42	X43	Y43	Z43	X44	Y44	Z44	X45	Y45	Z45	X46	Y46	Z46	X47	Y47	Z47	X48	Y48	Z48	X49	Y49	Z49	X50	Y50	Z50	
250	1.2500	412.590152	1358.632639	-156.371039	417.310694	1375.216973	-426.552047	384.744108	1443.221451	-295.425950	370.947989	1286.183073	-295.287649	531.276156	1126.352375	-81.766103	699.921904	914.010764	-114.482078	518.324681	1124.338444	-508.222240	754.159753	1028.359873	-479.877854	-145.360983	1166.328023	-273.675787	4.459247	1170.910518	-419.367989	17.577517	1191.878875	-141.666160	49.787997	1116.730168	-385.990104	48.333181	1126.128136	-167.382120	-106.277820	1213.829568	-233.840256	-106.489382	1213.196887	-320.920056	-39.200632	1065.991263	-100.427080	-75.345452	1068.643438	-445.346939	59.803243	1000.708921	-85.886006	146.849015	980.010485	-79.974059	209.532455	918.176797	-83.757366	163.935232	1011.052275	-91.445456	338.370251	836.479821	-109.352124	328.053062	833.059173	-219.997016	285.700374	738.376638	-87.111947	289.117166	649.857631	-99.366665	251.068917	573.239220	-105.356044	319.751075	646.880464	-123.347958	228.889927	440.766532	-119.017121	237.582583	474.470843	-196.519615	161.805524	401.635468	-164.740266	457.121444	409.307821	-159.499441	359.024548	375.472865	-94.590222	11.058858	956.088744	-470.366405	86.012278	913.767073	-474.938304	113.007822	937.580632	-463.832858	130.342862	835.068265	-479.073107	215.633478	712.040962	-452.896680	211.408599	704.329136	-343.240422	124.761211	623.929898	-470.003041	88.263581	545.580113	-454.633207	15.288620	495.316379	-449.828778	113.809890	529.075589	-431.252009	-58.199563	397.457630	-435.663131	-21.173634	418.754419	-361.465268	-129.394544	378.360945	-389.535517	142.326491	266.574386	-402.232966	30.494539	276.505219	-462.163049	-221.273028	910.420457	-274.990373	-53.490992	79.197755	-475.053800	-53.537434	79.366460	-77.223366	
251	1.2550	412.535741	1358.587059	-156.303854	417.293165	1375.188343	-426.516845	384.755447	1443.179112	-295.393838	370.875317	1286.107802	-295.283741	531.222718	1126.321667	-81.690412	699.917452	914.057612	-114.458898	518.296547	1124.319495	-508.224603	755.271033	1030.077610	-475.223870	-145.400719	1166.325045	-273.669676	4.427385	1170.934569	-419.367708	17.546617	1191.871912	-141.666550	49.755685	1116.722775	-385.985651	48.294824	1126.126417	-167.382922	-106.312089	1213.833807	-233.822638	-106.536585	1213.200123	-320.904676	-39.254070	1065.986029	-100.415727	-75.365381	1068.652075	-445.349498	59.752913	1000.691386	-85.867206	146.791272	980.006351	-79.947337	209.492049	918.173718	-83.734260	163.886842	1011.056996	-91.423300	338.342555	836.488315	-109.341104	328.017842	833.078757	-219.982447	285.686224	738.409296	-87.101438	289.113820	649.848339	-99.342491	251.073729	573.238579	-105.343331	319.731535	646.884907	-123.343866	228.893959	440.773143	-119.010446	237.622499	474.452290	-196.521946	161.818494	401.657091	-164.718526	457.127563	409.303249	-159.491332	359.027035	375.470667	-94.595368	11.041540	956.109809	-470.370817	85.990430	913.753402	-474.938236	112.987939	937.575865	-463.823170	130.310258	835.060697	-479.052742	215.599663	712.037216	-452.893552	211.380411	704.337006	-343.250860	124.724844	623.925530	-470.005958	88.238131	545.556371	-454.638194	15.262737	495.294315	-449.828800	113.774266	529.057667	-431.245041	-58.226337	397.472735	-435.665840	-21.173216	418.741335	-361.469638	-129.436990	378.336983	-389.543568	142.322564	266.595081	-402.227577	30.489896	276.499257	-462.156348	-221.276861	910.409848	-274.969072	-53.487014	79.196713	-475.053473	-53.530591	79.370746	-77.224766	
252	1.2600	412.502633	1358.527806	-156.257123	417.254081	1375.153279	-426.458345	384.754628	1443.130007	-295.335628	370.777401	1286.051758	-295.193426	531.162248	1126.283122	-81.627004	699.880834	914.065249	-114.437968	518.278613	1124.289114	-508.203017	755.371604	1030.082738	-475.101746	-145.425181	1166.319868	-273.663673	4.391064	1170.955745	-419.362904	17.490536	1191.852938	-141.670989	49.714309	1116.750863	-385.954146	48.260927	1126.140258	-167.368861	-106.361323	1213.835729	-233.815077	-106.566601	1213.207395	-320.878529	-39.293375	1065.962670	-100.419294	-75.382692	1068.656445	-445.341346	59.702135	1000.680741	-85.848876	146.755296	980.009332	-79.927761	209.449642	918.193231	-83.730676	163.828572	1011.048812	-91.393214	338.312977	836.492547	-109.308893	327.994458	833.098374	-219.954907	285.668603	738.378057	-87.075093	289.102601	649.855086	-99.344842	251.076060	573.222224	-105.327889	319.718221	646.901845	-123.331155	228.893944	440.773143	-119.010416	237.592795	474.461559	-196.492181	161.820911	401.643830	-164.717363	457.127783	409.299655	-159.498329	359.040757	375.452752	-94.603108	11.018212	956.114506	-470.381256	85.959967	913.765917	-474.932961	112.969327	937.578543	-463.813688	130.282231	835.047999	-479.052954	215.556547	712.037118	-452.891527	211.340402	704.332116	-343.271859	124.699569	623.908505	-469.985296	88.212061	545.563389	-454.653580	15.230369	495.282814	-449.825884	113.741706	529.073629	-431.247457	-58.265617	397.461017	-435.665770	-21.223024	418.746423	-361.467841	-129.464178	378.319932	-389.530161	142.300817	266.617256	-402.246257	30.469263	276.507535	-462.153150	-221.274669	910.419694	-274.982698	-53.500730	79.204629	-475.052460	-53.497975	79.171104	-77.389010	
253	1.2650	412.436720	1358.511433	-156.197361	417.256315	1375.107535	-426.425118	384.738207	1443.058668	-295.268555	370.701391	1285.990871	-295.150517	531.097664	1126.257080	-81.579577	699.846058	914.074973	-114.431289	518.229475	1124.268575	-508.205597	754.169383	1028.347591	-479.863742	-145.476995	1166.323279	-273.633700	4.362366	1170.959418	-419.341687	17.459254	1191.869805	-141.628561	49.677833	1116.757159	-385.948275	48.215268	1126.119989	-167.338762	-106.404603	1213.849697	-233.780263	-106.605919	1213.209969	-320.867457	-39.339665	1065.961203	-100.409326	-75.406958	1068.658590	-445.335557	59.673459	1000.685005	-85.839426	146.706205	980.017892	-79.890923	209.420286	918.203700	-83.707679	163.793523	1011.060083	-91.364431	338.290660	836.506898	-109.282823	327.954138	833.104669	-219.949140	285.659078	738.369185	-87.051505	289.088338	649.853794	-99.320277	251.067765	573.213224	-105.314925	319.718492	646.900257	-123.321023	228.909529	440.764156	-118.988820	237.588325	474.459342	-196.486216	161.799250	401.676982	-164.688633	457.129813	409.295823	-159.504904	359.024360	375.462022	-94.585891	10.988645	956.129827	-470.370967	85.936024	913.755597	-474.923213	112.936050	937.573354	-463.823925	130.242512	835.051534	-479.043197	215.511401	712.035208	-452.882844	211.283088	704.332549	-343.256114	124.663791	623.894594	-470.000107	88.177362	545.522094	-454.625990	15.208800	495.260710	-449.829200	113.715191	529.060341	-431.230721	-58.278163	397.449441	-435.661463	-21.237297	418.726089	-361.473711	-129.484696	378.291184	-389.537876	142.289877	266.628337	-402.225680	30.461322	276.517365	-462.163086	-221.291154	910.423101	-274.988746	-53.483988	79.200783	-475.057004	-53.491997	79.156785	-77.390167	
254	1.2700	412.396318	1358.451917	-156.162366	417.238095	1375.060765	-426.355342	384.734984	1443.009531	-295.212951	370.661083	1285.915995	-295.113768	531.039446	1126.255963	-81.540438	699.827219	914.074343	-114.412521	518.216367	1124.230366	-508.195525	754.029857	1028.325434	-479.797758	-145.510228	1166.322971	-273.618751	4.324773	1170.970223	-419.326262	17.402381	1191.878159	-141.613965	49.638886	1116.774581	-385.940960	48.188697	1126.134967	-167.321555	-106.435653	1213.849498	-233.766353	-106.643235	1213.214828	-320.838931	-39.377493	1065.955708	-100.338272	-75.437668	1068.678543	-445.330886	59.623887	1000.679099	-85.807724	146.693438	980.015815	-79.875858	209.361023	918.209418	-83.694025	163.749898	1011.076927	-91.329027	338.252645	836.515289	-109.249838	327.939904	833.113123	-219.926204	285.638386	738.366210	-87.014599	289.060599	649.854976	-99.308238	251.068700	573.220972	-105.289823	319.709824	646.887800	-123.316419	228.893694	440.767792	-118.973150	237.587232	474.454343	-196.475556	161.813768	401.672117	-164.707435	457.141531	409.291116	-159.490255	359.039910	375.461783	-94.577854	10.968755	956.124584	-470.360295	85.903744	913.771324	-474.940101	112.910011	937.591554	-463.828029	130.223712	835.062092	-479.043239	215.488096	712.040585	-452.892529	211.260823	704.317264	-343.273570	124.649285	623.878286	-470.001076	88.172072	545.538820	-454.641008	15.177701	495.252823	-449.832825	113.680306	529.049694	-431.227916	-58.294693	397.443706	-435.656197	-21.256058	418.732067	-361.474004	-129.500696	378.285499	-389.543642	142.282613	266.648130	-402.236940	30.460133	276.514330	-462.156553	-221.273414	910.411684	-274.983910	-53.482844	79.202815	-475.055556	-53.536867	79.367595	-77.208915	
